<svg xmlns="http://www.w3.org/2000/svg" xmlns:xlink="http://www.w3.org/1999/xlink" width="273" height="273" viewBox="0 0 273 273"><defs><style>.a,.d{fill:#fff;}.a{stroke:#015095;stroke-width:2px;}.b{fill:#015095;}.c{fill:none;}.e{stroke:none;}.f{filter:url(#a);}</style><filter id="a" x="0" y="0" width="273" height="273" filterUnits="userSpaceOnUse"><feOffset input="SourceAlpha"/><feGaussianBlur stdDeviation="7.5" result="b"/><feFlood flood-opacity="0.161"/><feComposite operator="in" in2="b"/><feComposite in="SourceGraphic"/></filter></defs><g transform="translate(-1410.5 -1029.5)"><g class="f" transform="matrix(1, 0, 0, 1, 1410.5, 1029.5)"><g class="a" transform="translate(22.5 22.5)"><circle class="e" cx="114" cy="114" r="114"/><circle class="c" cx="114" cy="114" r="113"/></g></g><circle class="b" cx="102" cy="102" r="102" transform="translate(1445 1064)"/><g transform="translate(1504 1123)"><path class="c" d="M0,0H85.328V85.328H0Z"/><path class="d" d="M59.885,8.111H45.024a10.624,10.624,0,0,0-20.052,0H10.111A7.132,7.132,0,0,0,3,15.221V65a7.132,7.132,0,0,0,7.111,7.111H59.885A7.132,7.132,0,0,0,67,65V15.221A7.132,7.132,0,0,0,59.885,8.111ZM35,8.111a3.555,3.555,0,1,1-3.555,3.555A3.566,3.566,0,0,1,35,8.111Zm0,14.221A10.666,10.666,0,1,1,24.332,33,10.652,10.652,0,0,1,35,22.332ZM56.33,65H13.666V60.019C13.666,52.908,27.887,49,35,49S56.33,52.908,56.33,60.019Z" transform="translate(7.666 2.555)"/></g></g></svg>