<svg xmlns="http://www.w3.org/2000/svg" width="32" height="32" viewBox="0 0 32 32"><defs><style>.a{fill:none;}.b{fill:#3ab53a;}</style></defs><path class="a" d="M0,0H32V32H0Z"/><path class="b" d="M31.429,30.144V11.6L21.143,2H7.429A3.315,3.315,0,0,0,4.017,5.2L4,30.8A3.315,3.315,0,0,0,7.411,34H28a3.559,3.559,0,0,0,2.04-.64l-7.594-7.088A9.081,9.081,0,0,1,17.714,27.6c-4.731,0-8.571-3.584-8.571-8s3.84-8,8.571-8,8.571,3.584,8.571,8A7.593,7.593,0,0,1,24.863,24ZM12.571,19.6a4.974,4.974,0,0,0,5.143,4.8,4.974,4.974,0,0,0,5.143-4.8,4.974,4.974,0,0,0-5.143-4.8A4.974,4.974,0,0,0,12.571,19.6Z" transform="translate(-1.714 -2)"/></svg>