<svg width="9" height="13" viewBox="0 0 9 13" fill="none" xmlns="http://www.w3.org/2000/svg">
<path d="M4.4998 0.5C2.01895 0.5 0 2.51816 0 4.9994C0 5.94491 0.293716 6.85157 0.849466 7.62312L0.967431 7.78851L4.19991 12.3493C4.27084 12.4435 4.38204 12.4995 4.5 12.4995C4.61757 12.4995 4.72896 12.4435 4.79969 12.3493L7.99192 7.84271L8.14974 7.62432C8.70628 6.85157 9 5.94491 9 4.9994C8.9996 2.51816 6.98065 0.5 4.4998 0.5ZM4.4998 6.49947C3.67285 6.49947 2.99993 5.82675 2.99993 4.9994C2.99993 4.17225 3.67285 3.49993 4.4998 3.49993C5.32675 3.49993 5.99967 4.17245 5.99967 4.9994C5.99967 5.82675 5.32675 6.49947 4.4998 6.49947Z" fill="#696969"/>
</svg>
