<svg xmlns="http://www.w3.org/2000/svg" width="39" height="38" viewBox="0 0 39 38"><defs><style>.a{fill:#7a7a7a;}.b{fill:none;}.c{fill:#1e9bfa;}.d{fill:#fff;font-size:9px;font-family:Poppins-Regular, Poppins;}</style></defs><g transform="translate(-1566 -30)"><g transform="translate(1272 -5062)"><path class="a" d="M18,34a3.383,3.383,0,0,0,3.5-3.231h-7A3.372,3.372,0,0,0,18,34Zm10.5-9.692V16.231c0-4.959-2.87-9.111-7.875-10.209v-1.1A2.527,2.527,0,0,0,18,2.5a2.527,2.527,0,0,0-2.625,2.423v1.1C10.352,7.12,7.5,11.255,7.5,16.231v8.077L4,27.538v1.615H32V27.538Z" transform="translate(294 5093.5)"/><rect class="b" width="36" height="36" transform="translate(294 5094)"/></g></g></svg>
