<svg xmlns="http://www.w3.org/2000/svg" width="36" height="36" viewBox="0 0 36 36"><defs><style>.a{fill:none;}.b{fill:#7a7a7a;}</style></defs><path class="a" d="M0,0H36V36H0ZM15,7.5h6v3H15Zm0,0h6v3H15Z"/><path class="b" d="M14.8,24.667V23H3.616L3.6,29.667A3.257,3.257,0,0,0,6.8,33H29.2a3.257,3.257,0,0,0,3.2-3.333V23H21.2v1.667Zm16-15H24.384V6.333L21.184,3h-6.4l-3.2,3.333V9.667H5.2A3.278,3.278,0,0,0,2,13v5a3.257,3.257,0,0,0,3.2,3.333h9.6V18h6.4v3.333h9.6A3.278,3.278,0,0,0,34,18V13A3.278,3.278,0,0,0,30.8,9.667Zm-9.6,0H14.8V6.333h6.4Z"/></svg>