<svg xmlns="http://www.w3.org/2000/svg" width="32" height="32" viewBox="0 0 32 32"><defs><style>.a{fill:none;}.b{fill:#ef7a6a;}</style></defs><path class="a" d="M0,0H32V32H0ZM13.333,6.667h5.333V9.333H13.333Zm0,0h5.333V9.333H13.333Z"/><path class="b" d="M14.8,24.46V22.81H3.616l-.016,6.6a3.241,3.241,0,0,0,3.2,3.3H29.2a3.241,3.241,0,0,0,3.2-3.3v-6.6H21.2V24.46ZM30.8,9.6H24.384V6.3L21.184,3h-6.4l-3.2,3.3V9.6H5.2A3.262,3.262,0,0,0,2,12.9v4.952a3.241,3.241,0,0,0,3.2,3.3h9.6v-3.3h6.4v3.3h9.6a3.262,3.262,0,0,0,3.2-3.3V12.9A3.262,3.262,0,0,0,30.8,9.6Zm-9.6,0H14.8V6.3h6.4Z" transform="translate(-2 -1.857)"/></svg>