<svg xmlns="http://www.w3.org/2000/svg" width="23" height="23" viewBox="0 0 23 23"><defs><style>.a{fill:#ff4f67;}.b{fill:none;}.c{fill:#fff;}</style></defs><g transform="translate(-595 -1444)"><circle class="a" cx="11.5" cy="11.5" r="11.5" transform="translate(595 1444)"/><g transform="translate(599.6 1448.6)"><path class="b" d="M0,0H13.8V13.8H0Z"/><path class="c" d="M7.75,13.551l-.834-.759C3.955,10.107,2,8.336,2,6.162A3.132,3.132,0,0,1,5.162,3,3.443,3.443,0,0,1,7.75,4.2,3.443,3.443,0,0,1,10.338,3,3.132,3.132,0,0,1,13.5,6.162c0,2.173-1.955,3.944-4.916,6.636Z" transform="translate(-0.85 -1.275)"/></g></g></svg>