<svg xmlns="http://www.w3.org/2000/svg" xmlns:xlink="http://www.w3.org/1999/xlink" width="273" height="273" viewBox="0 0 273 273"><defs><style>.a,.c{fill:#fff;}.a{stroke:#015095;stroke-width:2px;}.b{fill:#015095;}.d{stroke:none;}.e{fill:none;}.f{filter:url(#a);}</style><filter id="a" x="0" y="0" width="273" height="273" filterUnits="userSpaceOnUse"><feOffset input="SourceAlpha"/><feGaussianBlur stdDeviation="7.5" result="b"/><feFlood flood-opacity="0.161"/><feComposite operator="in" in2="b"/><feComposite in="SourceGraphic"/></filter></defs><g transform="translate(-210.5 -1029.5)"><g class="f" transform="matrix(1, 0, 0, 1, 210.5, 1029.5)"><g class="a" transform="translate(22.5 22.5)"><circle class="d" cx="114" cy="114" r="114"/><circle class="e" cx="114" cy="114" r="113"/></g></g><circle class="b" cx="102" cy="102" r="102" transform="translate(245 1064)"/><path class="c" d="M59.166,2H10.021A7.019,7.019,0,0,0,3,9.021V58.166a7.019,7.019,0,0,0,7.021,7.021H24.062L34.594,75.718,45.125,65.187H59.166a7.041,7.041,0,0,0,7.021-7.021V9.021A7.041,7.041,0,0,0,59.166,2ZM38.1,58.166H31.083V51.146H38.1Zm7.267-27.206-3.159,3.23c-2.527,2.563-4.107,4.669-4.107,9.934H31.083V42.37a14.13,14.13,0,0,1,4.107-9.934l4.353-4.423a6.864,6.864,0,0,0,2.071-4.95,7.021,7.021,0,0,0-14.042,0H20.552a14.042,14.042,0,1,1,28.083,0A11.17,11.17,0,0,1,45.371,30.961Z" transform="translate(312.406 1127.141)"/></g></svg>