<svg xmlns="http://www.w3.org/2000/svg" width="31.131" height="31.131" viewBox="0 0 31.131 31.131"><defs><style>.a{fill:#fbbb00;}.b{fill:#518ef8;}.c{fill:#28b446;}.d{fill:#f14336;}</style></defs><path class="a" d="M6.9,148.674l-1.084,4.045-3.961.084a15.593,15.593,0,0,1-.115-14.535h0l3.526.646,1.545,3.5a9.29,9.29,0,0,0,.087,6.254Z" transform="translate(0 -129.861)"/><path class="b" d="M276.579,208.176a15.56,15.56,0,0,1-5.549,15.046h0l-4.441-.227-.629-3.924a9.277,9.277,0,0,0,3.991-4.737h-8.323v-6.158h14.951Z" transform="translate(-245.72 -195.518)"/><path class="c" d="M53.963,318.3h0a15.571,15.571,0,0,1-23.455-4.762l5.044-4.129a9.257,9.257,0,0,0,13.34,4.74Z" transform="translate(-28.654 -290.596)"/><path class="d" d="M52.385,3.583,47.342,7.712A9.256,9.256,0,0,0,33.7,12.559L28.625,8.407h0A15.569,15.569,0,0,1,52.385,3.583Z" transform="translate(-26.884)"/></svg>