<svg xmlns="http://www.w3.org/2000/svg" width="52" height="52" viewBox="0 0 52 52"><defs><style>.a{fill:#08779c;}.b{fill:#0084b1;}.c{fill:#fefefe;fill-rule:evenodd;}</style></defs><g transform="translate(-154 -3204)"><rect class="a" width="52" height="52" rx="5" transform="translate(154 3204)"/><rect class="b" width="50" height="50" rx="5" transform="translate(154 3204)"/><g transform="translate(-19.702 2942.835)"><path class="c" d="M3678.076,3390a3.083,3.083,0,0,1,3.076,3.076,3.076,3.076,0,1,1-3.076-3.076Z" transform="translate(-3489.085 -3116.588)"/><path class="c" d="M3691.458,3652.038h-3.594a.849.849,0,0,1-.864-.83v-15.345a.855.855,0,0,1,.864-.864h3.594a.848.848,0,0,1,.829.864v15.345A.841.841,0,0,1,3691.458,3652.038Z" transform="translate(-3500.67 -3353.121)"/><path class="c" d="M3953.52,3628.806a5.8,5.8,0,0,0-5.841-5.806h-.9a5.143,5.143,0,0,0-4.251,2.212,1.936,1.936,0,0,0-.276.449h-.069v-1.9a.346.346,0,0,0-.346-.346h-4.493a.372.372,0,0,0-.346.346v16.347a.372.372,0,0,0,.346.345h4.6a.346.346,0,0,0,.345-.345v-9.435a2.981,2.981,0,0,1,5.081-2.143,3.069,3.069,0,0,1,.864,2.108v9.47a.347.347,0,0,0,.346.345h4.6a.346.346,0,0,0,.346-.345v-11.3Z" transform="translate(-3742.03 -3341.535)"/></g></g></svg>