<svg xmlns="http://www.w3.org/2000/svg" width="36" height="36" viewBox="0 0 36 36"><defs><style>.a{fill:none;}.b,.c{fill:#7a7a7a;}.b{fill-rule:evenodd;}</style></defs><rect class="a" width="36" height="36"/><g transform="translate(1.5 6)"><g transform="translate(23.505 13.695)"><path class="b" d="M16.67,13.13c2.055,1.4,3.495,3.285,3.495,5.805v4.5h6v-4.5C26.165,15.665,20.81,13.73,16.67,13.13Z" transform="translate(-16.67 -13.13)"/></g><g transform="translate(6)"><circle class="c" cx="6" cy="6" r="6" transform="translate(0.5)"/></g><g transform="translate(19.005)"><path class="b" d="M15.665,16a6,6,0,1,0,0-12,6.267,6.267,0,0,0-1.995.36,8.97,8.97,0,0,1,0,11.28A6.267,6.267,0,0,0,15.665,16Z" transform="translate(-13.67 -4)"/></g><g transform="translate(0 13.5)"><path class="b" d="M13,13C8.995,13,1,15.01,1,19v4.5H25V19C25,15.01,17.005,13,13,13Z" transform="translate(-1 -13)"/></g></g></svg>