<svg xmlns="http://www.w3.org/2000/svg" xmlns:xlink="http://www.w3.org/1999/xlink" width="273" height="273" viewBox="0 0 273 273"><defs><style>.a,.d{fill:#fff;}.a{stroke:#015095;stroke-width:2px;}.b{fill:#015095;}.c{fill:none;}.e{stroke:none;}.f{filter:url(#a);}</style><filter id="a" x="0" y="0" width="273" height="273" filterUnits="userSpaceOnUse"><feOffset input="SourceAlpha"/><feGaussianBlur stdDeviation="7.5" result="b"/><feFlood flood-opacity="0.161"/><feComposite operator="in" in2="b"/><feComposite in="SourceGraphic"/></filter></defs><g transform="translate(-796.5 -1029.5)"><g class="f" transform="matrix(1, 0, 0, 1, 796.5, 1029.5)"><g class="a" transform="translate(22.5 22.5)"><circle class="e" cx="114" cy="114" r="114"/><circle class="c" cx="114" cy="114" r="113"/></g></g><circle class="b" cx="102" cy="102" r="102" transform="translate(831 1064)"/><g transform="translate(889 1122)"><rect class="c" width="88" height="88"/><g transform="translate(11 3.667)"><path class="d" d="M69,15.667,36,1,3,15.667v22c0,20.35,14.08,39.38,33,44a41.54,41.54,0,0,0,21.56-13.6L46.12,56.623a18.331,18.331,0,1,1,5.207-5.207L61.96,62.05A46.658,46.658,0,0,0,69,37.667Z" transform="translate(-3 -1)"/><circle class="d" cx="11" cy="11" r="11" transform="translate(22 29.333)"/></g></g></g></svg>