<svg xmlns="http://www.w3.org/2000/svg" width="23" height="23" viewBox="0 0 23 23"><defs><style>.a{fill:#5f93ff;}.b{fill:none;}.c{fill:#fff;}</style></defs><g transform="translate(-563 -1444)"><circle class="a" cx="11.5" cy="11.5" r="11.5" transform="translate(563 1444)"/><g transform="translate(567.058 1448.45)"><path class="b" d="M0,13.912H15.434V0H0Z"/><path class="c" d="M15.115,12.434H13.8a.623.623,0,0,1-.656-.58V6.637a.623.623,0,0,1,.656-.58h1.312Zm-13-4.127A1.036,1.036,0,0,1,2,7.843V7.217A1.246,1.246,0,0,1,3.312,6.058H6.918l-.6-2.7a.521.521,0,0,1,.052-.383,2.822,2.822,0,0,1,.577-.707L7.246,2l4.2,3.716a1.1,1.1,0,0,1,.387.823v4.545A1.455,1.455,0,0,1,10.3,12.434H4.984a1.365,1.365,0,0,1-1.128-.562L2.111,8.307Z" transform="translate(-0.841 -0.841)"/></g></g></svg>