<svg xmlns="http://www.w3.org/2000/svg" width="52" height="52" viewBox="0 0 52 52"><defs><style>.a{fill:#3c9de8;}.b{fill:#50abf1;}.c{fill:#fff;fill-rule:evenodd;}</style></defs><g transform="translate(-300 -3204)"><rect class="a" width="52" height="52" rx="5" transform="translate(300 3204)"/><rect class="b" width="50" height="50" rx="5" transform="translate(300 3204)"/><path class="c" d="M537,6296.19a18.817,18.817,0,0,0,28.858-15.9v-.761c.38-.311,2.7-2.177,3.249-3.386a14.412,14.412,0,0,1-3.732.967h0c.173-.1,2.557-1.728,2.868-3.663a20.99,20.99,0,0,1-3.18,1.348c-.311.1-.657.207-.968.311a6.55,6.55,0,0,0-4.838-2.108,6.623,6.623,0,0,0-6.6,6.6,6.994,6.994,0,0,0,.173,1.486,19.751,19.751,0,0,1-13.548-6.843s-3.145,4.32,1.9,8.743a6.827,6.827,0,0,1-2.868-.863,6.293,6.293,0,0,0,5.219,6.566,6.018,6.018,0,0,1-2.9.1,6.533,6.533,0,0,0,6.048,4.631A12.687,12.687,0,0,1,537,6296.19Z" transform="translate(-227.053 -3056.046)"/></g></svg>