<svg xmlns="http://www.w3.org/2000/svg" width="52" height="52" viewBox="0 0 52 52"><defs><style>.a{fill:#de0404;}.b{fill:red;}.c{fill:#fefefe;fill-rule:evenodd;}</style></defs><g transform="translate(-227 -3204)"><rect class="a" width="52" height="52" rx="5" transform="translate(227 3204)"/><rect class="b" width="50" height="50" rx="5" transform="translate(227 3204)"/><path class="c" d="M522.627,3468.767a4.294,4.294,0,0,0-3.041-3.042c-2.661-.726-13.409-.726-13.409-.726s-10.748,0-13.444.726a4.354,4.354,0,0,0-3.041,3.042,49.7,49.7,0,0,0,0,16.52,4.355,4.355,0,0,0,3.041,3.042c2.7.726,13.444.726,13.444.726s10.748,0,13.409-.691a4.3,4.3,0,0,0,3.041-3.042,47.561,47.561,0,0,0,0-16.554Zm-19.872,13.409,8.916-5.149-8.916-5.149Z" transform="translate(-253.177 -248.027)"/></g></svg>