<svg width="22" height="25" viewBox="0 0 22 25" fill="none" xmlns="http://www.w3.org/2000/svg">
<path fill-rule="evenodd" clip-rule="evenodd" d="M16.1996 17.5602H5.79961V10.1202C5.79961 6.81436 8.3996 5.1602 10.9984 5.1602H11.0008C13.5996 5.1602 16.1996 6.81436 16.1996 10.1202V17.5602ZM12.299 21.2802C12.299 21.9647 11.7166 22.5202 10.9996 22.5202C10.2814 22.5202 9.69899 21.9647 9.69899 21.2802V20.0402H12.299V21.2802ZM18.7996 15.0802V10.1202C18.7996 5.71448 15.7212 3.26917 12.299 2.77813V0.200195H9.69899V2.77813C6.278 3.26917 3.19961 5.71448 3.19961 10.1202V15.0802C3.19961 16.4504 2.03726 17.5602 0.599609 17.5602V20.0402H7.10022V21.2802C7.10022 23.3349 8.84497 25.0002 10.9996 25.0002C13.153 25.0002 14.9002 23.3349 14.9002 21.2802V20.0402H21.3996V17.5602C19.9632 17.5602 18.7996 16.4504 18.7996 15.0802Z" fill="#696969"/>
</svg>
