<svg width="28" height="23" viewBox="0 0 28 23" fill="none" xmlns="http://www.w3.org/2000/svg">
<path d="M5 10.9996C5.59334 10.9996 6.17336 10.8237 6.66671 10.494C7.16006 10.1644 7.54458 9.69585 7.77164 9.14768C7.9987 8.5995 8.05811 7.9963 7.94236 7.41435C7.8266 6.83241 7.54088 6.29786 7.12132 5.8783C6.70176 5.45875 6.16721 5.17302 5.58527 5.05727C5.00333 4.94151 4.40013 5.00092 3.85195 5.22799C3.30377 5.45505 2.83524 5.83957 2.50559 6.33291C2.17595 6.82626 2 7.40628 2 7.99962C2 8.79527 2.31607 9.55834 2.87868 10.1209C3.44129 10.6836 4.20435 10.9996 5 10.9996ZM5 6.99962C5.19778 6.99962 5.39112 7.05827 5.55557 7.16816C5.72002 7.27804 5.84819 7.43421 5.92388 7.61694C5.99957 7.79967 6.01937 8.00073 5.98079 8.19471C5.9422 8.3887 5.84696 8.56688 5.70711 8.70673C5.56725 8.84658 5.38907 8.94183 5.19509 8.98041C5.00111 9.019 4.80004 8.99919 4.61732 8.9235C4.43459 8.84782 4.27841 8.71965 4.16853 8.5552C4.05865 8.39075 4 8.19741 4 7.99962C4 7.73441 4.10536 7.48005 4.29289 7.29252C4.48043 7.10498 4.73478 6.99962 5 6.99962ZM20 7.99962C20 8.59297 20.1759 9.17299 20.5056 9.66634C20.8352 10.1597 21.3038 10.5442 21.8519 10.7713C22.4001 10.9983 23.0033 11.0577 23.5853 10.942C24.1672 10.8262 24.7018 10.5405 25.1213 10.1209C25.5409 9.70139 25.8266 9.16684 25.9424 8.5849C26.0581 8.00295 25.9987 7.39975 25.7716 6.85157C25.5446 6.3034 25.1601 5.83486 24.6667 5.50522C24.1734 5.17557 23.5933 4.99962 23 4.99962C22.2044 4.99962 21.4413 5.31569 20.8787 5.8783C20.3161 6.44091 20 7.20398 20 7.99962ZM23 6.99962C23.1978 6.99962 23.3911 7.05827 23.5556 7.16816C23.72 7.27804 23.8482 7.43421 23.9239 7.61694C23.9996 7.79967 24.0194 8.00073 23.9808 8.19471C23.9422 8.3887 23.847 8.56688 23.7071 8.70673C23.5673 8.84658 23.3891 8.94183 23.1951 8.98041C23.0011 9.019 22.8 8.99919 22.6173 8.9235C22.4346 8.84782 22.2784 8.71965 22.1685 8.5552C22.0586 8.39075 22 8.19741 22 7.99962C22 7.73441 22.1054 7.48005 22.2929 7.29252C22.4804 7.10498 22.7348 6.99962 23 6.99962ZM8.26 3.81962C9.94288 2.63843 11.949 2.00467 14.005 2.00467C16.061 2.00467 18.0671 2.63843 19.75 3.81962C19.9675 3.97212 20.2366 4.03198 20.4982 3.98604C20.7599 3.94009 20.9925 3.7921 21.145 3.57462C21.2975 3.35715 21.3574 3.088 21.3114 2.82638C21.2655 2.56477 21.1175 2.33212 20.9 2.17962C18.8803 0.761741 16.4727 0.000976562 14.005 0.000976562C11.5373 0.000976563 9.12966 0.761741 7.11 2.17962C6.99236 2.25056 6.8906 2.34496 6.81106 2.45696C6.73152 2.56896 6.6759 2.69614 6.64769 2.83058C6.61947 2.96502 6.61925 3.10383 6.64705 3.23835C6.67485 3.37288 6.73006 3.50024 6.80925 3.61248C6.88845 3.72473 6.98991 3.81945 7.10733 3.89075C7.22474 3.96205 7.35559 4.00839 7.49171 4.02689C7.62783 4.04538 7.76629 4.03564 7.89848 3.99826C8.03066 3.96088 8.15373 3.89667 8.26 3.80962V3.81962ZM19.74 19.1796C18.0571 20.3608 16.051 20.9946 13.995 20.9946C11.939 20.9946 9.93288 20.3608 8.25 19.1796C8.14232 19.1041 8.02081 19.0506 7.89243 19.022C7.76405 18.9934 7.6313 18.9905 7.50176 19.0132C7.37222 19.036 7.24843 19.084 7.13746 19.1546C7.02649 19.2252 6.93051 19.3169 6.855 19.4246C6.77949 19.5323 6.72593 19.6538 6.69738 19.7822C6.66882 19.9106 6.66584 20.0433 6.68859 20.1729C6.71134 20.3024 6.75938 20.4262 6.82997 20.5372C6.90056 20.6481 6.99232 20.7441 7.1 20.8196C9.11966 22.2375 11.5273 22.9983 13.995 22.9983C16.4627 22.9983 18.8703 22.2375 20.89 20.8196C21.0076 20.7487 21.1094 20.6543 21.1889 20.5423C21.2685 20.4303 21.3241 20.3031 21.3523 20.1687C21.3805 20.0342 21.3807 19.8954 21.3529 19.7609C21.3252 19.6264 21.2699 19.499 21.1907 19.3868C21.1116 19.2745 21.0101 19.1798 20.8927 19.1085C20.7753 19.0372 20.6444 18.9909 20.5083 18.9724C20.3722 18.9539 20.2337 18.9636 20.1015 19.001C19.9693 19.0384 19.8463 19.1026 19.74 19.1896V19.1796ZM10 16.9996V16.2696C10 15.1372 9.55013 14.0511 8.74935 13.2503C7.94857 12.4495 6.86247 11.9996 5.73 11.9996H4.27C3.13753 11.9996 2.05143 12.4495 1.25065 13.2503C0.449874 14.0511 0 15.1372 0 16.2696V16.9996C0 17.2648 0.105357 17.5192 0.292893 17.7067C0.48043 17.8943 0.734784 17.9996 1 17.9996H9C9.26522 17.9996 9.51957 17.8943 9.70711 17.7067C9.89464 17.5192 10 17.2648 10 16.9996ZM2 15.9996C2.06597 15.4489 2.33125 14.9415 2.74578 14.573C3.16031 14.2045 3.69538 14.0006 4.25 13.9996H5.73C6.28806 13.9957 6.82802 14.1974 7.24675 14.5663C7.66548 14.9353 7.93364 15.4455 8 15.9996H2ZM23.73 11.9996H22.27C21.1375 11.9996 20.0514 12.4495 19.2507 13.2503C18.4499 14.0511 18 15.1372 18 16.2696V16.9996C18 17.2648 18.1054 17.5192 18.2929 17.7067C18.4804 17.8943 18.7348 17.9996 19 17.9996H27C27.2652 17.9996 27.5196 17.8943 27.7071 17.7067C27.8946 17.5192 28 17.2648 28 16.9996V16.2696C28 15.1372 27.5501 14.0511 26.7493 13.2503C25.9486 12.4495 24.8625 11.9996 23.73 11.9996ZM20 15.9996C20.066 15.4489 20.3313 14.9415 20.7458 14.573C21.1603 14.2045 21.6954 14.0006 22.25 13.9996H23.72C24.2798 13.9932 24.8222 14.1938 25.243 14.563C25.6639 14.9321 25.9335 15.4438 26 15.9996H20Z" fill="#696969"/>
</svg>
