<svg width="30" height="25" viewBox="0 0 30 25" fill="none" xmlns="http://www.w3.org/2000/svg">
<path d="M14.5771 1.19735L1.94182 7.09382C1.17233 7.45291 1.17233 8.54709 1.94182 8.90618L14.5771 14.8027C14.8452 14.9277 15.1548 14.9277 15.4229 14.8027L28.0582 8.90618C28.8277 8.54709 28.8277 7.45291 28.0582 7.09382L15.4229 1.19735C15.1548 1.07226 14.8452 1.07226 14.5771 1.19735Z" stroke="#696969" stroke-width="2"/>
<path d="M5 14C5 15.746 5 19.619 5 21.1429C5 22.6667 11.5045 24 14.7568 24C17.8378 23.8413 24 22.2857 24 21.1429C24 20 24 15.9048 24 14" stroke="#696969" stroke-width="2" stroke-linecap="round"/>
<path d="M27 10V18" stroke="#696969" stroke-width="2" stroke-linecap="round"/>
</svg>
