<svg width="16" height="16" viewBox="0 0 16 16" fill="none" xmlns="http://www.w3.org/2000/svg">
<path fill-rule="evenodd" clip-rule="evenodd" d="M13.2505 14.4H2.75053C2.18573 14.4 1.76812 13.8424 1.98172 13.3296C2.97052 10.9584 5.29373 9.59999 8.00013 9.59999C10.7073 9.59999 13.0305 10.9584 14.0193 13.3296C14.2329 13.8424 13.8153 14.4 13.2505 14.4ZM4.73373 4.79999C4.73373 3.03519 6.19933 1.59999 8.00013 1.59999C9.80173 1.59999 11.2665 3.03519 11.2665 4.79999C11.2665 6.56479 9.80173 7.99999 8.00013 7.99999C6.19933 7.99999 4.73373 6.56479 4.73373 4.79999ZM15.9649 14.1088C15.3713 11.4216 13.5137 9.43837 11.0697 8.53837C12.3649 7.51677 13.1201 5.86474 12.8425 4.05594C12.5209 1.95754 10.7385 0.278381 8.58813 0.0335815C5.61853 -0.304819 3.10013 1.95919 3.10013 4.79999C3.10013 6.31199 3.81533 7.65917 4.93133 8.53837C2.48573 9.43837 0.629726 11.4216 0.0353255 14.1088C-0.180675 15.0856 0.623327 16 1.64333 16H14.3569C15.3777 16 16.1809 15.0856 15.9649 14.1088Z" fill="#696969"/>
</svg>
