<svg width="25" height="24" viewBox="0 0 25 24" fill="none" xmlns="http://www.w3.org/2000/svg">
<path d="M11.1422 0.799806C10.8766 0.829052 10.654 1.079 10.6556 1.34623V2.49884C10.6099 2.50834 10.565 2.51328 10.519 2.52443C10.4213 2.54814 10.3311 2.57906 10.2372 2.60981L9.12724 1.49989C8.92523 1.30019 8.56082 1.30019 8.35881 1.49989L6.71949 3.13915C6.5147 3.34176 6.5147 3.71348 6.71949 3.91609L7.77822 4.97478C7.74856 5.03134 7.70692 5.07498 7.67576 5.13699C7.62506 5.23789 7.59983 5.34231 7.55623 5.44436H6.28405C5.99794 5.44439 5.73764 5.70469 5.73761 5.99078V8.17647C5.73764 8.46256 5.99794 8.72285 6.28405 8.72288H7.55623C7.59901 8.82245 7.62628 8.92324 7.67576 9.02171C7.70662 9.08311 7.74886 9.12787 7.77822 9.18392L6.71949 10.2426C6.5147 10.4452 6.5147 10.8169 6.71949 11.0196L8.35881 12.6588C8.56082 12.8585 8.92523 12.8585 9.12724 12.6588L10.2372 11.5489C10.3313 11.5797 10.4211 11.619 10.519 11.6428C10.5652 11.654 10.6098 11.6589 10.6556 11.6684V12.821C10.6556 13.1071 10.9159 13.3674 11.202 13.3674H13.3878C13.6739 13.3674 13.9342 13.1071 13.9342 12.821V11.6684C13.9782 11.6592 14.0178 11.6536 14.0623 11.6428C14.16 11.6191 14.2586 11.5882 14.3526 11.5574L15.454 12.6588C15.6566 12.8636 16.0283 12.8636 16.2309 12.6588L17.8703 11.0196C18.0751 10.8169 18.0751 10.4452 17.8703 10.2426L16.803 9.17538C16.8312 9.12128 16.8758 9.0808 16.9055 9.02171C16.9547 8.92364 16.9823 8.82204 17.025 8.72288H18.3057C18.5918 8.72285 18.8521 8.46256 18.8521 8.17647C18.8522 7.51977 18.8521 6.73432 18.8521 5.99078C18.8521 5.70469 18.5918 5.44439 18.3057 5.44436H17.0335C16.9897 5.34174 16.9564 5.23845 16.9055 5.13699C16.8755 5.07731 16.8315 5.03792 16.803 4.98332L17.8703 3.91609C18.0751 3.71348 18.0751 3.34176 17.8703 3.13915L16.2309 1.49989C16.0283 1.2951 15.6566 1.2951 15.454 1.49989L14.344 2.60981C14.2519 2.57985 14.1579 2.54766 14.0623 2.52443C14.018 2.51369 13.978 2.50799 13.9342 2.49884V1.34623C13.9342 1.06013 13.6739 0.799833 13.3878 0.799806C12.6419 0.799803 11.8833 0.799806 11.1422 0.799806ZM11.7484 1.89264H12.8413V2.98549C12.8395 3.29264 13.1422 3.56546 13.4475 3.5319C13.6488 3.51294 14.1199 3.67921 14.1391 3.68557C14.3471 3.84998 14.6776 3.83053 14.8649 3.64287L15.8467 2.66103L16.7005 3.53188L15.7272 4.5052C15.5252 4.70497 15.5212 5.06938 15.7187 5.27359C15.6949 5.24854 15.8376 5.4441 15.9321 5.6322C16.0266 5.82029 16.1165 6.03754 16.137 6.11885C16.1939 6.35449 16.424 6.53635 16.6664 6.53719H17.7593V7.63004H16.6664C16.4262 7.62994 16.1971 7.80731 16.137 8.03985C16.1165 8.12116 16.0266 8.34696 15.9321 8.53505C15.8376 8.72315 15.695 8.91869 15.7187 8.89364C15.5262 9.09713 15.5302 9.45439 15.7272 9.6535L16.7005 10.6354L15.8467 11.4891L14.8649 10.5158C14.6806 10.3302 14.3564 10.307 14.1477 10.4646C14.0416 10.5193 13.9109 10.5462 13.8061 10.5756C13.6973 10.5951 13.5898 10.6212 13.4817 10.6439C13.169 10.5894 12.8416 10.8643 12.8413 11.1818V12.2746H11.7484V11.1818C11.7491 10.8609 11.4147 10.5838 11.0995 10.6439C11.1309 10.641 10.8515 10.6155 10.7751 10.5756C10.6574 10.5518 10.549 10.5084 10.4421 10.4731C10.2353 10.3134 9.91129 10.3327 9.72491 10.5158L8.74303 11.4977L7.87214 10.6354L8.85402 9.65351C9.05102 9.4544 9.05504 9.09714 8.86256 8.89366C8.88626 8.91871 8.75217 8.72316 8.65765 8.53507C8.56313 8.34697 8.47322 8.12119 8.45273 8.03988C8.39267 7.80734 8.16355 7.62996 7.92337 7.63006H6.83049V6.53723H7.92337C8.16577 6.53641 8.3959 6.3545 8.45273 6.11887C8.47322 6.03755 8.56313 5.82031 8.65765 5.63221C8.75217 5.44412 8.88628 5.24857 8.86256 5.27363C9.06004 5.06942 9.05599 4.70499 8.85402 4.50522L7.87214 3.53191L8.74303 2.66105L9.72491 3.64291C9.90611 3.82673 10.2241 3.85354 10.4336 3.70266C10.5345 3.63545 10.6696 3.61275 10.7751 3.58313C10.8968 3.54255 11.027 3.52882 11.1337 3.53191C11.4416 3.57068 11.7508 3.29584 11.7484 2.98549L11.7484 1.89264ZM12.2949 4.62475C10.9435 4.62475 9.8359 5.73207 9.8359 7.08363C9.8359 8.4352 10.9435 9.54252 12.2949 9.54252C13.6462 9.54252 14.7539 8.4352 14.7539 7.08363C14.7539 5.73207 13.6462 4.62475 12.2949 4.62475ZM12.2949 5.71758C13.0556 5.71758 13.661 6.32274 13.661 7.08363C13.661 7.84453 13.0556 8.44969 12.2949 8.44969C11.5341 8.44969 10.9288 7.84453 10.9288 7.08363C10.9288 6.32274 11.5341 5.71758 12.2949 5.71758ZM18.5533 13.0857C18.4662 13.0912 18.3805 13.1176 18.3057 13.1626L15.8553 14.5286C15.6049 14.6672 15.5032 15.0211 15.6418 15.2714C15.7804 15.5218 16.1343 15.6234 16.3846 15.4849L18.8436 14.1188C19.0683 14.0061 19.1928 13.7244 19.1248 13.4825C19.0568 13.2405 18.8038 13.0648 18.5533 13.0857ZM20.7476 14.1786C20.6612 14.1813 20.5756 14.2051 20.5 14.2468L16.9482 16.1593C16.6956 16.2957 16.5898 16.6495 16.7261 16.9021C16.8625 17.1547 17.2164 17.2605 17.469 17.1241L21.0208 15.2116C21.2416 15.0995 21.365 14.8241 21.3017 14.5847C21.2383 14.3453 20.995 14.1669 20.7476 14.1786ZM5.18263 15.2799C4.57484 15.2881 3.81714 15.2586 3.06518 15.5788C1.96565 16.0477 0.925465 16.3642 0.324448 16.6374C0.133888 16.7221 0.00158204 16.9241 0 17.1326V22.1273C0 22.4966 0.168257 22.689 0.350063 22.8701C0.531868 23.0511 0.773703 23.2553 1.1868 23.186C2.33428 22.9934 3.47956 22.9181 4.63619 22.9298C9.02337 23.0062 10.8726 23.185 14.7282 23.186C14.7364 23.186 14.7457 23.1857 14.7539 23.186C15.3842 23.2064 16.0377 22.9774 16.7518 22.6481C17.4751 22.3144 18.2449 21.8625 19.0144 21.376C20.5533 20.4028 22.0859 19.2813 22.959 18.7463C22.9647 18.7436 22.9704 18.7408 22.9761 18.7378C23.2271 18.5706 23.4141 18.4502 23.5737 18.328C23.7334 18.2059 23.8974 18.0724 23.9921 17.8243C24.0867 17.5762 24.0204 17.3086 23.9494 17.1413C23.8784 16.974 23.8013 16.8377 23.7018 16.6546C23.6937 16.6428 23.6852 16.6314 23.6762 16.6204C23.5945 16.4928 23.5232 16.3685 23.42 16.2363C23.3168 16.104 23.1651 15.9487 22.9419 15.8691C22.4954 15.7099 22.1002 15.8839 21.5929 16.1594C21.5842 16.1649 21.5756 16.1706 21.5673 16.1763C20.1773 17.0472 18.1093 18.1416 16.1114 18.6011C16.1121 18.5852 16.12 18.5746 16.12 18.5584V17.7388C16.12 17.1963 15.7437 16.9004 15.3942 16.6972C15.0447 16.4939 14.6362 16.3727 14.2074 16.3727H10.4592C9.29001 16.0615 7.32794 15.2503 5.18263 15.2799L5.18263 15.2799ZM5.19971 16.3728C7.07683 16.3468 8.9237 17.1057 10.2457 17.4485C10.2903 17.46 10.3363 17.4655 10.3823 17.4655H14.2074C14.3885 17.4655 14.6583 17.5395 14.8392 17.6447C14.975 17.7237 15.0167 17.816 15.0271 17.7984V18.4985C15.019 18.4764 14.9833 18.5572 14.8478 18.6351C14.6693 18.7378 14.3991 18.8211 14.216 18.823H14.2074H14.1647H10.3823C10.0936 18.8189 9.82785 19.0805 9.82785 19.3694C9.82785 19.6582 10.0936 19.92 10.3823 19.9158H14.1562H14.1903C14.196 19.9159 14.2018 19.9157 14.2074 19.9158H14.216C17.1285 19.9685 20.2038 18.3182 22.1137 17.1239C22.1215 17.119 22.1315 17.1114 22.1393 17.107C22.4065 16.9696 22.5409 16.9432 22.5662 16.9277C22.6021 16.9752 22.6659 17.0638 22.737 17.1753C22.8158 17.3205 22.8536 17.3934 22.8907 17.4656C22.7899 17.5416 22.6229 17.6585 22.3869 17.8156C22.3797 17.8206 22.3772 17.8192 22.3699 17.8241C21.4062 18.416 19.9222 19.5126 18.4338 20.4537C17.6866 20.9262 16.9414 21.3574 16.2907 21.6576C15.64 21.9577 15.0701 22.1059 14.7709 22.093C14.7652 22.093 14.7596 22.093 14.7539 22.093C10.9106 22.093 9.07575 21.9139 4.65327 21.8369C3.48225 21.8251 2.29815 21.903 1.11849 22.093C1.10548 22.0758 1.09503 22.0481 1.09288 22.0418V17.5082C1.61003 17.3029 2.46691 17.0234 3.49209 16.5861C3.96947 16.3828 4.57099 16.3813 5.19971 16.3727L5.19971 16.3728Z" fill="#696969"/>
</svg>
