<svg xmlns="http://www.w3.org/2000/svg" width="28" height="28" viewBox="0 0 28 28"><defs><style>.a{fill:none;}.b{fill:#6a6a6a;}</style></defs><path class="a" d="M0,0H28V28H0Z"/><g transform="translate(2.333 2.333)"><path class="b" d="M4.333,4.333H23v14H5.7L4.333,19.7V4.333h0M4.333,2A2.33,2.33,0,0,0,2.012,4.333L2,25.333l4.667-4.667H23a2.34,2.34,0,0,0,2.333-2.333v-14A2.34,2.34,0,0,0,23,2Z" transform="translate(-2 -2)"/><path class="b" d="M6,12h9.333v2.333H6Z" transform="translate(-1.333 -0.333)"/><path class="b" d="M6,9H20v2.333H6Z" transform="translate(-1.333 -0.833)"/><path class="b" d="M6,6H20V8.333H6Z" transform="translate(-1.333 -1.333)"/></g></svg>