<svg xmlns="http://www.w3.org/2000/svg" width="34.092" height="30.819" viewBox="0 0 34.092 30.819"><defs><style>.a{fill:none;opacity:0.87;}.b{fill:#6a6a6a;}</style></defs><path class="a" d="M34.092,0H0V30.819H34.092Z"/><g transform="translate(1.42 1.284)"><path class="b" d="M9.841,9.989H18.8L17.455,4.12l-.043-.411a1.845,1.845,0,0,1,.625-1.361L19.543,1,28.89,9.463a2.4,2.4,0,0,1,.838,1.811V24.115a2.723,2.723,0,0,1-2.841,2.568H14.1a2.84,2.84,0,0,1-2.614-1.567L7.2,16.063a2.325,2.325,0,0,1-.2-.937V12.557A2.723,2.723,0,0,1,9.841,9.989Zm0,5.137L14.1,24.115H26.887V11.273L20.722,5.7,22.3,12.557H9.841Z" transform="translate(-7 -1)"/><rect class="b" width="5.719" height="15.569" transform="translate(25.681 10.154)"/></g></svg>